<?xml version="1.0" encoding="utf-8" standalone="no"?>
<!DOCTYPE svg PUBLIC "-//W3C//DTD SVG 1.1//EN"
  "http://www.w3.org/Graphics/SVG/1.1/DTD/svg11.dtd">
<svg xmlns:xlink="http://www.w3.org/1999/xlink" width="862.589949pt" height="360.154375pt" viewBox="0 0 862.589949 360.154375" xmlns="http://www.w3.org/2000/svg" version="1.1">
 <metadata>
  <rdf:RDF xmlns:dc="http://purl.org/dc/elements/1.1/" xmlns:cc="http://creativecommons.org/ns#" xmlns:rdf="http://www.w3.org/1999/02/22-rdf-syntax-ns#">
   <cc:Work>
    <dc:type rdf:resource="http://purl.org/dc/dcmitype/StillImage"/>
    <dc:date>2026-05-14T17:26:08.811588</dc:date>
    <dc:format>image/svg+xml</dc:format>
    <dc:creator>
     <cc:Agent>
      <dc:title>Matplotlib v3.5.1, https://matplotlib.org/</dc:title>
     </cc:Agent>
    </dc:creator>
   </cc:Work>
  </rdf:RDF>
 </metadata>
 <defs>
  <style type="text/css">*{stroke-linejoin: round; stroke-linecap: butt}</style>
 </defs>
 <g id="figure_1">
  <g id="patch_1">
   <path d="M 0 360.154375 
L 862.589949 360.154375 
L 862.589949 0 
L 0 0 
z
" style="fill: #ffffff"/>
  </g>
  <g id="axes_1">
   <g id="patch_2">
    <path d="M 44.203125 318.998125 
L 512.524683 318.998125 
L 512.524683 25.918125 
L 44.203125 25.918125 
z
" style="fill: #ffffff"/>
   </g>
   <g id="matplotlib.axis_1">
    <g id="xtick_1">
     <g id="line2d_1">
      <path d="M 65.46918 318.998125 
L 65.46918 25.918125 
" clip-path="url(#p1c590ab8db)" style="fill: none; stroke: #b0b0b0; stroke-opacity: 0.3; stroke-width: 0.8; stroke-linecap: square"/>
     </g>
     <g id="line2d_2">
      <defs>
       <path id="mcd6cedaf45" d="M 0 0 
L 0 3.5 
" style="stroke: #000000; stroke-width: 0.8"/>
      </defs>
      <g>
       <use xlink:href="#mcd6cedaf45" x="65.46918" y="318.998125" style="stroke: #000000; stroke-width: 0.8"/>
      </g>
     </g>
     <g id="text_1">
      <!-- 0 -->
      <g transform="translate(62.28793 333.596563)scale(0.1 -0.1)">
       <defs>
        <path id="DejaVuSans-30" d="M 2034 4250 
Q 1547 4250 1301 3770 
Q 1056 3291 1056 2328 
Q 1056 1369 1301 889 
Q 1547 409 2034 409 
Q 2525 409 2770 889 
Q 3016 1369 3016 2328 
Q 3016 3291 2770 3770 
Q 2525 4250 2034 4250 
z
M 2034 4750 
Q 2819 4750 3233 4129 
Q 3647 3509 3647 2328 
Q 3647 1150 3233 529 
Q 2819 -91 2034 -91 
Q 1250 -91 836 529 
Q 422 1150 422 2328 
Q 422 3509 836 4129 
Q 1250 4750 2034 4750 
z
" transform="scale(0.015625)"/>
       </defs>
       <use xlink:href="#DejaVuSans-30"/>
      </g>
     </g>
    </g>
    <g id="xtick_2">
     <g id="line2d_3">
      <path d="M 118.6902 318.998125 
L 118.6902 25.918125 
" clip-path="url(#p1c590ab8db)" style="fill: none; stroke: #b0b0b0; stroke-opacity: 0.3; stroke-width: 0.8; stroke-linecap: square"/>
     </g>
     <g id="line2d_4">
      <g>
       <use xlink:href="#mcd6cedaf45" x="118.6902" y="318.998125" style="stroke: #000000; stroke-width: 0.8"/>
      </g>
     </g>
     <g id="text_2">
      <!-- 2500 -->
      <g transform="translate(105.9652 333.596563)scale(0.1 -0.1)">
       <defs>
        <path id="DejaVuSans-32" d="M 1228 531 
L 3431 531 
L 3431 0 
L 469 0 
L 469 531 
Q 828 903 1448 1529 
Q 2069 2156 2228 2338 
Q 2531 2678 2651 2914 
Q 2772 3150 2772 3378 
Q 2772 3750 2511 3984 
Q 2250 4219 1831 4219 
Q 1534 4219 1204 4116 
Q 875 4013 500 3803 
L 500 4441 
Q 881 4594 1212 4672 
Q 1544 4750 1819 4750 
Q 2544 4750 2975 4387 
Q 3406 4025 3406 3419 
Q 3406 3131 3298 2873 
Q 3191 2616 2906 2266 
Q 2828 2175 2409 1742 
Q 1991 1309 1228 531 
z
" transform="scale(0.015625)"/>
        <path id="DejaVuSans-35" d="M 691 4666 
L 3169 4666 
L 3169 4134 
L 1269 4134 
L 1269 2991 
Q 1406 3038 1543 3061 
Q 1681 3084 1819 3084 
Q 2600 3084 3056 2656 
Q 3513 2228 3513 1497 
Q 3513 744 3044 326 
Q 2575 -91 1722 -91 
Q 1428 -91 1123 -41 
Q 819 9 494 109 
L 494 744 
Q 775 591 1075 516 
Q 1375 441 1709 441 
Q 2250 441 2565 725 
Q 2881 1009 2881 1497 
Q 2881 1984 2565 2268 
Q 2250 2553 1709 2553 
Q 1456 2553 1204 2497 
Q 953 2441 691 2322 
L 691 4666 
z
" transform="scale(0.015625)"/>
       </defs>
       <use xlink:href="#DejaVuSans-32"/>
       <use xlink:href="#DejaVuSans-35" x="63.623047"/>
       <use xlink:href="#DejaVuSans-30" x="127.246094"/>
       <use xlink:href="#DejaVuSans-30" x="190.869141"/>
      </g>
     </g>
    </g>
    <g id="xtick_3">
     <g id="line2d_5">
      <path d="M 171.91122 318.998125 
L 171.91122 25.918125 
" clip-path="url(#p1c590ab8db)" style="fill: none; stroke: #b0b0b0; stroke-opacity: 0.3; stroke-width: 0.8; stroke-linecap: square"/>
     </g>
     <g id="line2d_6">
      <g>
       <use xlink:href="#mcd6cedaf45" x="171.91122" y="318.998125" style="stroke: #000000; stroke-width: 0.8"/>
      </g>
     </g>
     <g id="text_3">
      <!-- 5000 -->
      <g transform="translate(159.18622 333.596563)scale(0.1 -0.1)">
       <use xlink:href="#DejaVuSans-35"/>
       <use xlink:href="#DejaVuSans-30" x="63.623047"/>
       <use xlink:href="#DejaVuSans-30" x="127.246094"/>
       <use xlink:href="#DejaVuSans-30" x="190.869141"/>
      </g>
     </g>
    </g>
    <g id="xtick_4">
     <g id="line2d_7">
      <path d="M 225.13224 318.998125 
L 225.13224 25.918125 
" clip-path="url(#p1c590ab8db)" style="fill: none; stroke: #b0b0b0; stroke-opacity: 0.3; stroke-width: 0.8; stroke-linecap: square"/>
     </g>
     <g id="line2d_8">
      <g>
       <use xlink:href="#mcd6cedaf45" x="225.13224" y="318.998125" style="stroke: #000000; stroke-width: 0.8"/>
      </g>
     </g>
     <g id="text_4">
      <!-- 7500 -->
      <g transform="translate(212.40724 333.596563)scale(0.1 -0.1)">
       <defs>
        <path id="DejaVuSans-37" d="M 525 4666 
L 3525 4666 
L 3525 4397 
L 1831 0 
L 1172 0 
L 2766 4134 
L 525 4134 
L 525 4666 
z
" transform="scale(0.015625)"/>
       </defs>
       <use xlink:href="#DejaVuSans-37"/>
       <use xlink:href="#DejaVuSans-35" x="63.623047"/>
       <use xlink:href="#DejaVuSans-30" x="127.246094"/>
       <use xlink:href="#DejaVuSans-30" x="190.869141"/>
      </g>
     </g>
    </g>
    <g id="xtick_5">
     <g id="line2d_9">
      <path d="M 278.35326 318.998125 
L 278.35326 25.918125 
" clip-path="url(#p1c590ab8db)" style="fill: none; stroke: #b0b0b0; stroke-opacity: 0.3; stroke-width: 0.8; stroke-linecap: square"/>
     </g>
     <g id="line2d_10">
      <g>
       <use xlink:href="#mcd6cedaf45" x="278.35326" y="318.998125" style="stroke: #000000; stroke-width: 0.8"/>
      </g>
     </g>
     <g id="text_5">
      <!-- 10000 -->
      <g transform="translate(262.44701 333.596563)scale(0.1 -0.1)">
       <defs>
        <path id="DejaVuSans-31" d="M 794 531 
L 1825 531 
L 1825 4091 
L 703 3866 
L 703 4441 
L 1819 4666 
L 2450 4666 
L 2450 531 
L 3481 531 
L 3481 0 
L 794 0 
L 794 531 
z
" transform="scale(0.015625)"/>
       </defs>
       <use xlink:href="#DejaVuSans-31"/>
       <use xlink:href="#DejaVuSans-30" x="63.623047"/>
       <use xlink:href="#DejaVuSans-30" x="127.246094"/>
       <use xlink:href="#DejaVuSans-30" x="190.869141"/>
       <use xlink:href="#DejaVuSans-30" x="254.492188"/>
      </g>
     </g>
    </g>
    <g id="xtick_6">
     <g id="line2d_11">
      <path d="M 331.57428 318.998125 
L 331.57428 25.918125 
" clip-path="url(#p1c590ab8db)" style="fill: none; stroke: #b0b0b0; stroke-opacity: 0.3; stroke-width: 0.8; stroke-linecap: square"/>
     </g>
     <g id="line2d_12">
      <g>
       <use xlink:href="#mcd6cedaf45" x="331.57428" y="318.998125" style="stroke: #000000; stroke-width: 0.8"/>
      </g>
     </g>
     <g id="text_6">
      <!-- 12500 -->
      <g transform="translate(315.66803 333.596563)scale(0.1 -0.1)">
       <use xlink:href="#DejaVuSans-31"/>
       <use xlink:href="#DejaVuSans-32" x="63.623047"/>
       <use xlink:href="#DejaVuSans-35" x="127.246094"/>
       <use xlink:href="#DejaVuSans-30" x="190.869141"/>
       <use xlink:href="#DejaVuSans-30" x="254.492188"/>
      </g>
     </g>
    </g>
    <g id="xtick_7">
     <g id="line2d_13">
      <path d="M 384.7953 318.998125 
L 384.7953 25.918125 
" clip-path="url(#p1c590ab8db)" style="fill: none; stroke: #b0b0b0; stroke-opacity: 0.3; stroke-width: 0.8; stroke-linecap: square"/>
     </g>
     <g id="line2d_14">
      <g>
       <use xlink:href="#mcd6cedaf45" x="384.7953" y="318.998125" style="stroke: #000000; stroke-width: 0.8"/>
      </g>
     </g>
     <g id="text_7">
      <!-- 15000 -->
      <g transform="translate(368.88905 333.596563)scale(0.1 -0.1)">
       <use xlink:href="#DejaVuSans-31"/>
       <use xlink:href="#DejaVuSans-35" x="63.623047"/>
       <use xlink:href="#DejaVuSans-30" x="127.246094"/>
       <use xlink:href="#DejaVuSans-30" x="190.869141"/>
       <use xlink:href="#DejaVuSans-30" x="254.492188"/>
      </g>
     </g>
    </g>
    <g id="xtick_8">
     <g id="line2d_15">
      <path d="M 438.01632 318.998125 
L 438.01632 25.918125 
" clip-path="url(#p1c590ab8db)" style="fill: none; stroke: #b0b0b0; stroke-opacity: 0.3; stroke-width: 0.8; stroke-linecap: square"/>
     </g>
     <g id="line2d_16">
      <g>
       <use xlink:href="#mcd6cedaf45" x="438.01632" y="318.998125" style="stroke: #000000; stroke-width: 0.8"/>
      </g>
     </g>
     <g id="text_8">
      <!-- 17500 -->
      <g transform="translate(422.11007 333.596563)scale(0.1 -0.1)">
       <use xlink:href="#DejaVuSans-31"/>
       <use xlink:href="#DejaVuSans-37" x="63.623047"/>
       <use xlink:href="#DejaVuSans-35" x="127.246094"/>
       <use xlink:href="#DejaVuSans-30" x="190.869141"/>
       <use xlink:href="#DejaVuSans-30" x="254.492188"/>
      </g>
     </g>
    </g>
    <g id="xtick_9">
     <g id="line2d_17">
      <path d="M 491.23734 318.998125 
L 491.23734 25.918125 
" clip-path="url(#p1c590ab8db)" style="fill: none; stroke: #b0b0b0; stroke-opacity: 0.3; stroke-width: 0.8; stroke-linecap: square"/>
     </g>
     <g id="line2d_18">
      <g>
       <use xlink:href="#mcd6cedaf45" x="491.23734" y="318.998125" style="stroke: #000000; stroke-width: 0.8"/>
      </g>
     </g>
     <g id="text_9">
      <!-- 20000 -->
      <g transform="translate(475.33109 333.596563)scale(0.1 -0.1)">
       <use xlink:href="#DejaVuSans-32"/>
       <use xlink:href="#DejaVuSans-30" x="63.623047"/>
       <use xlink:href="#DejaVuSans-30" x="127.246094"/>
       <use xlink:href="#DejaVuSans-30" x="190.869141"/>
       <use xlink:href="#DejaVuSans-30" x="254.492188"/>
      </g>
     </g>
    </g>
    <g id="text_10">
     <!-- Generation -->
     <g transform="translate(250.470935 347.274688)scale(0.1 -0.1)">
      <defs>
       <path id="DejaVuSans-47" d="M 3809 666 
L 3809 1919 
L 2778 1919 
L 2778 2438 
L 4434 2438 
L 4434 434 
Q 4069 175 3628 42 
Q 3188 -91 2688 -91 
Q 1594 -91 976 548 
Q 359 1188 359 2328 
Q 359 3472 976 4111 
Q 1594 4750 2688 4750 
Q 3144 4750 3555 4637 
Q 3966 4525 4313 4306 
L 4313 3634 
Q 3963 3931 3569 4081 
Q 3175 4231 2741 4231 
Q 1884 4231 1454 3753 
Q 1025 3275 1025 2328 
Q 1025 1384 1454 906 
Q 1884 428 2741 428 
Q 3075 428 3337 486 
Q 3600 544 3809 666 
z
" transform="scale(0.015625)"/>
       <path id="DejaVuSans-65" d="M 3597 1894 
L 3597 1613 
L 953 1613 
Q 991 1019 1311 708 
Q 1631 397 2203 397 
Q 2534 397 2845 478 
Q 3156 559 3463 722 
L 3463 178 
Q 3153 47 2828 -22 
Q 2503 -91 2169 -91 
Q 1331 -91 842 396 
Q 353 884 353 1716 
Q 353 2575 817 3079 
Q 1281 3584 2069 3584 
Q 2775 3584 3186 3129 
Q 3597 2675 3597 1894 
z
M 3022 2063 
Q 3016 2534 2758 2815 
Q 2500 3097 2075 3097 
Q 1594 3097 1305 2825 
Q 1016 2553 972 2059 
L 3022 2063 
z
" transform="scale(0.015625)"/>
       <path id="DejaVuSans-6e" d="M 3513 2113 
L 3513 0 
L 2938 0 
L 2938 2094 
Q 2938 2591 2744 2837 
Q 2550 3084 2163 3084 
Q 1697 3084 1428 2787 
Q 1159 2491 1159 1978 
L 1159 0 
L 581 0 
L 581 3500 
L 1159 3500 
L 1159 2956 
Q 1366 3272 1645 3428 
Q 1925 3584 2291 3584 
Q 2894 3584 3203 3211 
Q 3513 2838 3513 2113 
z
" transform="scale(0.015625)"/>
       <path id="DejaVuSans-72" d="M 2631 2963 
Q 2534 3019 2420 3045 
Q 2306 3072 2169 3072 
Q 1681 3072 1420 2755 
Q 1159 2438 1159 1844 
L 1159 0 
L 581 0 
L 581 3500 
L 1159 3500 
L 1159 2956 
Q 1341 3275 1631 3429 
Q 1922 3584 2338 3584 
Q 2397 3584 2469 3576 
Q 2541 3569 2628 3553 
L 2631 2963 
z
" transform="scale(0.015625)"/>
       <path id="DejaVuSans-61" d="M 2194 1759 
Q 1497 1759 1228 1600 
Q 959 1441 959 1056 
Q 959 750 1161 570 
Q 1363 391 1709 391 
Q 2188 391 2477 730 
Q 2766 1069 2766 1631 
L 2766 1759 
L 2194 1759 
z
M 3341 1997 
L 3341 0 
L 2766 0 
L 2766 531 
Q 2569 213 2275 61 
Q 1981 -91 1556 -91 
Q 1019 -91 701 211 
Q 384 513 384 1019 
Q 384 1609 779 1909 
Q 1175 2209 1959 2209 
L 2766 2209 
L 2766 2266 
Q 2766 2663 2505 2880 
Q 2244 3097 1772 3097 
Q 1472 3097 1187 3025 
Q 903 2953 641 2809 
L 641 3341 
Q 956 3463 1253 3523 
Q 1550 3584 1831 3584 
Q 2591 3584 2966 3190 
Q 3341 2797 3341 1997 
z
" transform="scale(0.015625)"/>
       <path id="DejaVuSans-74" d="M 1172 4494 
L 1172 3500 
L 2356 3500 
L 2356 3053 
L 1172 3053 
L 1172 1153 
Q 1172 725 1289 603 
Q 1406 481 1766 481 
L 2356 481 
L 2356 0 
L 1766 0 
Q 1100 0 847 248 
Q 594 497 594 1153 
L 594 3053 
L 172 3053 
L 172 3500 
L 594 3500 
L 594 4494 
L 1172 4494 
z
" transform="scale(0.015625)"/>
       <path id="DejaVuSans-69" d="M 603 3500 
L 1178 3500 
L 1178 0 
L 603 0 
L 603 3500 
z
M 603 4863 
L 1178 4863 
L 1178 4134 
L 603 4134 
L 603 4863 
z
" transform="scale(0.015625)"/>
       <path id="DejaVuSans-6f" d="M 1959 3097 
Q 1497 3097 1228 2736 
Q 959 2375 959 1747 
Q 959 1119 1226 758 
Q 1494 397 1959 397 
Q 2419 397 2687 759 
Q 2956 1122 2956 1747 
Q 2956 2369 2687 2733 
Q 2419 3097 1959 3097 
z
M 1959 3584 
Q 2709 3584 3137 3096 
Q 3566 2609 3566 1747 
Q 3566 888 3137 398 
Q 2709 -91 1959 -91 
Q 1206 -91 779 398 
Q 353 888 353 1747 
Q 353 2609 779 3096 
Q 1206 3584 1959 3584 
z
" transform="scale(0.015625)"/>
      </defs>
      <use xlink:href="#DejaVuSans-47"/>
      <use xlink:href="#DejaVuSans-65" x="77.490234"/>
      <use xlink:href="#DejaVuSans-6e" x="139.013672"/>
      <use xlink:href="#DejaVuSans-65" x="202.392578"/>
      <use xlink:href="#DejaVuSans-72" x="263.916016"/>
      <use xlink:href="#DejaVuSans-61" x="305.029297"/>
      <use xlink:href="#DejaVuSans-74" x="366.308594"/>
      <use xlink:href="#DejaVuSans-69" x="405.517578"/>
      <use xlink:href="#DejaVuSans-6f" x="433.300781"/>
      <use xlink:href="#DejaVuSans-6e" x="494.482422"/>
     </g>
    </g>
   </g>
   <g id="matplotlib.axis_2">
    <g id="ytick_1">
     <g id="line2d_19">
      <path d="M 44.203125 305.676307 
L 512.524683 305.676307 
" clip-path="url(#p1c590ab8db)" style="fill: none; stroke: #b0b0b0; stroke-opacity: 0.3; stroke-width: 0.8; stroke-linecap: square"/>
     </g>
     <g id="line2d_20">
      <defs>
       <path id="m058d8c19b8" d="M 0 0 
L -3.5 0 
" style="stroke: #000000; stroke-width: 0.8"/>
      </defs>
      <g>
       <use xlink:href="#m058d8c19b8" x="44.203125" y="305.676307" style="stroke: #000000; stroke-width: 0.8"/>
      </g>
     </g>
     <g id="text_11">
      <!-- 0 -->
      <g transform="translate(30.840625 309.475526)scale(0.1 -0.1)">
       <use xlink:href="#DejaVuSans-30"/>
      </g>
     </g>
    </g>
    <g id="ytick_2">
     <g id="line2d_21">
      <path d="M 44.203125 247.755358 
L 512.524683 247.755358 
" clip-path="url(#p1c590ab8db)" style="fill: none; stroke: #b0b0b0; stroke-opacity: 0.3; stroke-width: 0.8; stroke-linecap: square"/>
     </g>
     <g id="line2d_22">
      <g>
       <use xlink:href="#m058d8c19b8" x="44.203125" y="247.755358" style="stroke: #000000; stroke-width: 0.8"/>
      </g>
     </g>
     <g id="text_12">
      <!-- 5 -->
      <g transform="translate(30.840625 251.554577)scale(0.1 -0.1)">
       <use xlink:href="#DejaVuSans-35"/>
      </g>
     </g>
    </g>
    <g id="ytick_3">
     <g id="line2d_23">
      <path d="M 44.203125 189.83441 
L 512.524683 189.83441 
" clip-path="url(#p1c590ab8db)" style="fill: none; stroke: #b0b0b0; stroke-opacity: 0.3; stroke-width: 0.8; stroke-linecap: square"/>
     </g>
     <g id="line2d_24">
      <g>
       <use xlink:href="#m058d8c19b8" x="44.203125" y="189.83441" style="stroke: #000000; stroke-width: 0.8"/>
      </g>
     </g>
     <g id="text_13">
      <!-- 10 -->
      <g transform="translate(24.478125 193.633628)scale(0.1 -0.1)">
       <use xlink:href="#DejaVuSans-31"/>
       <use xlink:href="#DejaVuSans-30" x="63.623047"/>
      </g>
     </g>
    </g>
    <g id="ytick_4">
     <g id="line2d_25">
      <path d="M 44.203125 131.913461 
L 512.524683 131.913461 
" clip-path="url(#p1c590ab8db)" style="fill: none; stroke: #b0b0b0; stroke-opacity: 0.3; stroke-width: 0.8; stroke-linecap: square"/>
     </g>
     <g id="line2d_26">
      <g>
       <use xlink:href="#m058d8c19b8" x="44.203125" y="131.913461" style="stroke: #000000; stroke-width: 0.8"/>
      </g>
     </g>
     <g id="text_14">
      <!-- 15 -->
      <g transform="translate(24.478125 135.71268)scale(0.1 -0.1)">
       <use xlink:href="#DejaVuSans-31"/>
       <use xlink:href="#DejaVuSans-35" x="63.623047"/>
      </g>
     </g>
    </g>
    <g id="ytick_5">
     <g id="line2d_27">
      <path d="M 44.203125 73.992512 
L 512.524683 73.992512 
" clip-path="url(#p1c590ab8db)" style="fill: none; stroke: #b0b0b0; stroke-opacity: 0.3; stroke-width: 0.8; stroke-linecap: square"/>
     </g>
     <g id="line2d_28">
      <g>
       <use xlink:href="#m058d8c19b8" x="44.203125" y="73.992512" style="stroke: #000000; stroke-width: 0.8"/>
      </g>
     </g>
     <g id="text_15">
      <!-- 20 -->
      <g transform="translate(24.478125 77.791731)scale(0.1 -0.1)">
       <use xlink:href="#DejaVuSans-32"/>
       <use xlink:href="#DejaVuSans-30" x="63.623047"/>
      </g>
     </g>
    </g>
    <g id="text_16">
     <!-- Cumulative Mutations -->
     <g transform="translate(18.398438 227.27375)rotate(-90)scale(0.1 -0.1)">
      <defs>
       <path id="DejaVuSans-43" d="M 4122 4306 
L 4122 3641 
Q 3803 3938 3442 4084 
Q 3081 4231 2675 4231 
Q 1875 4231 1450 3742 
Q 1025 3253 1025 2328 
Q 1025 1406 1450 917 
Q 1875 428 2675 428 
Q 3081 428 3442 575 
Q 3803 722 4122 1019 
L 4122 359 
Q 3791 134 3420 21 
Q 3050 -91 2638 -91 
Q 1578 -91 968 557 
Q 359 1206 359 2328 
Q 359 3453 968 4101 
Q 1578 4750 2638 4750 
Q 3056 4750 3426 4639 
Q 3797 4528 4122 4306 
z
" transform="scale(0.015625)"/>
       <path id="DejaVuSans-75" d="M 544 1381 
L 544 3500 
L 1119 3500 
L 1119 1403 
Q 1119 906 1312 657 
Q 1506 409 1894 409 
Q 2359 409 2629 706 
Q 2900 1003 2900 1516 
L 2900 3500 
L 3475 3500 
L 3475 0 
L 2900 0 
L 2900 538 
Q 2691 219 2414 64 
Q 2138 -91 1772 -91 
Q 1169 -91 856 284 
Q 544 659 544 1381 
z
M 1991 3584 
L 1991 3584 
z
" transform="scale(0.015625)"/>
       <path id="DejaVuSans-6d" d="M 3328 2828 
Q 3544 3216 3844 3400 
Q 4144 3584 4550 3584 
Q 5097 3584 5394 3201 
Q 5691 2819 5691 2113 
L 5691 0 
L 5113 0 
L 5113 2094 
Q 5113 2597 4934 2840 
Q 4756 3084 4391 3084 
Q 3944 3084 3684 2787 
Q 3425 2491 3425 1978 
L 3425 0 
L 2847 0 
L 2847 2094 
Q 2847 2600 2669 2842 
Q 2491 3084 2119 3084 
Q 1678 3084 1418 2786 
Q 1159 2488 1159 1978 
L 1159 0 
L 581 0 
L 581 3500 
L 1159 3500 
L 1159 2956 
Q 1356 3278 1631 3431 
Q 1906 3584 2284 3584 
Q 2666 3584 2933 3390 
Q 3200 3197 3328 2828 
z
" transform="scale(0.015625)"/>
       <path id="DejaVuSans-6c" d="M 603 4863 
L 1178 4863 
L 1178 0 
L 603 0 
L 603 4863 
z
" transform="scale(0.015625)"/>
       <path id="DejaVuSans-76" d="M 191 3500 
L 800 3500 
L 1894 563 
L 2988 3500 
L 3597 3500 
L 2284 0 
L 1503 0 
L 191 3500 
z
" transform="scale(0.015625)"/>
       <path id="DejaVuSans-20" transform="scale(0.015625)"/>
       <path id="DejaVuSans-4d" d="M 628 4666 
L 1569 4666 
L 2759 1491 
L 3956 4666 
L 4897 4666 
L 4897 0 
L 4281 0 
L 4281 4097 
L 3078 897 
L 2444 897 
L 1241 4097 
L 1241 0 
L 628 0 
L 628 4666 
z
" transform="scale(0.015625)"/>
       <path id="DejaVuSans-73" d="M 2834 3397 
L 2834 2853 
Q 2591 2978 2328 3040 
Q 2066 3103 1784 3103 
Q 1356 3103 1142 2972 
Q 928 2841 928 2578 
Q 928 2378 1081 2264 
Q 1234 2150 1697 2047 
L 1894 2003 
Q 2506 1872 2764 1633 
Q 3022 1394 3022 966 
Q 3022 478 2636 193 
Q 2250 -91 1575 -91 
Q 1294 -91 989 -36 
Q 684 19 347 128 
L 347 722 
Q 666 556 975 473 
Q 1284 391 1588 391 
Q 1994 391 2212 530 
Q 2431 669 2431 922 
Q 2431 1156 2273 1281 
Q 2116 1406 1581 1522 
L 1381 1569 
Q 847 1681 609 1914 
Q 372 2147 372 2553 
Q 372 3047 722 3315 
Q 1072 3584 1716 3584 
Q 2034 3584 2315 3537 
Q 2597 3491 2834 3397 
z
" transform="scale(0.015625)"/>
      </defs>
      <use xlink:href="#DejaVuSans-43"/>
      <use xlink:href="#DejaVuSans-75" x="69.824219"/>
      <use xlink:href="#DejaVuSans-6d" x="133.203125"/>
      <use xlink:href="#DejaVuSans-75" x="230.615234"/>
      <use xlink:href="#DejaVuSans-6c" x="293.994141"/>
      <use xlink:href="#DejaVuSans-61" x="321.777344"/>
      <use xlink:href="#DejaVuSans-74" x="383.056641"/>
      <use xlink:href="#DejaVuSans-69" x="422.265625"/>
      <use xlink:href="#DejaVuSans-76" x="450.048828"/>
      <use xlink:href="#DejaVuSans-65" x="509.228516"/>
      <use xlink:href="#DejaVuSans-20" x="570.751953"/>
      <use xlink:href="#DejaVuSans-4d" x="602.539062"/>
      <use xlink:href="#DejaVuSans-75" x="688.818359"/>
      <use xlink:href="#DejaVuSans-74" x="752.197266"/>
      <use xlink:href="#DejaVuSans-61" x="791.40625"/>
      <use xlink:href="#DejaVuSans-74" x="852.685547"/>
      <use xlink:href="#DejaVuSans-69" x="891.894531"/>
      <use xlink:href="#DejaVuSans-6f" x="919.677734"/>
      <use xlink:href="#DejaVuSans-6e" x="980.859375"/>
      <use xlink:href="#DejaVuSans-73" x="1044.238281"/>
     </g>
    </g>
   </g>
   <g id="line2d_29">
    <path d="M 65.490469 305.676307 
L 89.525081 305.676307 
L 89.652812 294.092117 
L 112.495273 294.092117 
L 112.623004 282.507927 
L 127.588755 282.507927 
L 127.716485 270.923738 
L 135.720927 270.923738 
L 135.848657 259.339548 
L 169.463053 259.339548 
L 169.590784 247.755358 
L 204.2696 247.755358 
L 204.397331 236.171168 
L 205.717212 236.171168 
L 205.844942 224.586979 
L 217.574855 224.586979 
L 217.702586 213.002789 
L 222.790515 213.002789 
L 222.918246 201.418599 
L 224.749049 201.418599 
L 224.876779 189.83441 
L 278.864182 189.83441 
L 278.991912 178.25022 
L 326.997272 178.25022 
L 327.125003 166.66603 
L 348.115373 166.66603 
L 348.243103 155.08184 
L 361.39934 155.08184 
L 361.52707 143.497651 
L 373.767905 143.497651 
L 373.895635 131.913461 
L 401.208663 131.913461 
L 401.336393 120.329271 
L 406.31788 120.329271 
L 406.445611 108.745082 
L 440.507064 108.745082 
L 440.634794 97.160892 
L 444.126093 97.160892 
L 444.253823 85.576702 
L 482.125901 85.576702 
L 482.253632 73.992512 
L 491.23734 73.992512 
L 491.23734 73.992512 
" clip-path="url(#p1c590ab8db)" style="fill: none; stroke: #4682b4; stroke-opacity: 0.15; stroke-width: 0.5; stroke-linecap: square"/>
   </g>
   <g id="line2d_30">
    <path d="M 65.490469 305.676307 
L 104.533409 305.676307 
L 104.661139 294.092117 
L 136.317002 294.092117 
L 136.444732 282.507927 
L 146.152246 282.507927 
L 146.279977 270.923738 
L 148.387529 270.923738 
L 148.51526 259.339548 
L 164.566719 259.339548 
L 164.69445 247.755358 
L 174.785155 247.755358 
L 174.912886 236.171168 
L 245.569112 236.171168 
L 245.696842 224.586979 
L 293.553183 224.586979 
L 293.680914 213.002789 
L 351.840844 213.002789 
L 351.968575 201.418599 
L 385.625548 201.418599 
L 385.753278 189.83441 
L 405.487633 189.83441 
L 405.615363 178.25022 
L 412.619249 178.25022 
L 412.74698 166.66603 
L 431.374337 166.66603 
L 431.502067 155.08184 
L 477.910796 155.08184 
L 478.038527 143.497651 
L 491.23734 143.497651 
L 491.23734 143.497651 
" clip-path="url(#p1c590ab8db)" style="fill: none; stroke: #4682b4; stroke-opacity: 0.15; stroke-width: 0.5; stroke-linecap: square"/>
   </g>
   <g id="line2d_31">
    <path d="M 65.490469 305.676307 
L 99.637075 305.676307 
L 99.764805 294.092117 
L 118.200567 294.092117 
L 118.328297 282.507927 
L 138.126517 282.507927 
L 138.254247 270.923738 
L 146.663168 270.923738 
L 146.790899 259.339548 
L 149.835141 259.339548 
L 149.962871 247.755358 
L 168.845689 247.755358 
L 168.97342 236.171168 
L 184.6204 236.171168 
L 184.74813 224.586979 
L 191.177229 224.586979 
L 191.30496 213.002789 
L 219.001179 213.002789 
L 219.128909 201.418599 
L 302.664622 201.418599 
L 302.792352 189.83441 
L 307.156476 189.83441 
L 307.284206 178.25022 
L 310.58391 178.25022 
L 310.71164 166.66603 
L 319.652772 166.66603 
L 319.780502 155.08184 
L 329.956361 155.08184 
L 330.084091 143.497651 
L 338.918781 143.497651 
L 339.046511 131.913461 
L 351.50023 131.913461 
L 351.62796 120.329271 
L 369.382493 120.329271 
L 369.510223 108.745082 
L 404.210328 108.745082 
L 404.338058 97.160892 
L 421.751976 97.160892 
L 421.879707 85.576702 
L 431.693663 85.576702 
L 431.821393 73.992512 
L 433.098698 73.992512 
L 433.226428 62.408323 
L 449.001138 62.408323 
L 449.128869 50.824133 
L 454.365817 50.824133 
L 454.493548 39.239943 
L 491.23734 39.239943 
L 491.23734 39.239943 
" clip-path="url(#p1c590ab8db)" style="fill: none; stroke: #4682b4; stroke-opacity: 0.15; stroke-width: 0.5; stroke-linecap: square"/>
   </g>
   <g id="line2d_32">
    <path d="M 65.490469 305.676307 
L 115.284055 305.676307 
L 115.411785 294.092117 
L 140.830144 294.092117 
L 140.957875 282.507927 
L 156.924181 282.507927 
L 157.051911 270.923738 
L 275.309018 270.923738 
L 275.436748 259.339548 
L 280.673696 259.339548 
L 280.801427 247.755358 
L 301.046703 247.755358 
L 301.174433 236.171168 
L 320.227559 236.171168 
L 320.355289 224.586979 
L 333.894716 224.586979 
L 334.022447 213.002789 
L 335.938404 213.002789 
L 336.066134 201.418599 
L 363.230143 201.418599 
L 363.357873 189.83441 
L 390.245132 189.83441 
L 390.372863 178.25022 
L 400.0378 178.25022 
L 400.165531 166.66603 
L 400.293261 166.66603 
L 400.420991 155.08184 
L 401.91118 155.08184 
L 402.03891 143.497651 
L 425.924504 143.497651 
L 426.052235 131.913461 
L 440.82639 131.913461 
L 440.95412 120.329271 
L 472.269368 120.329271 
L 472.397099 108.745082 
L 489.704575 108.745082 
L 489.832305 97.160892 
L 491.23734 97.160892 
L 491.23734 97.160892 
" clip-path="url(#p1c590ab8db)" style="fill: none; stroke: #4682b4; stroke-opacity: 0.15; stroke-width: 0.5; stroke-linecap: square"/>
   </g>
   <g id="line2d_33">
    <path d="M 65.490469 305.676307 
L 98.189463 305.676307 
L 98.317194 294.092117 
L 110.047106 294.092117 
L 110.174837 282.507927 
L 126.758507 282.507927 
L 126.886237 270.923738 
L 156.200375 270.923738 
L 156.328105 259.339548 
L 163.097819 259.339548 
L 163.22555 247.755358 
L 174.231657 247.755358 
L 174.359387 236.171168 
L 183.215365 236.171168 
L 183.343095 224.586979 
L 204.290889 224.586979 
L 204.418619 213.002789 
L 217.958047 213.002789 
L 218.085777 201.418599 
L 251.998211 201.418599 
L 252.125941 189.83441 
L 256.766814 189.83441 
L 256.894545 178.25022 
L 332.298086 178.25022 
L 332.425816 166.66603 
L 383.73088 166.66603 
L 383.85861 155.08184 
L 401.677007 155.08184 
L 401.804738 143.497651 
L 406.168862 143.497651 
L 406.296592 131.913461 
L 406.701072 131.913461 
L 406.828802 120.329271 
L 420.538537 120.329271 
L 420.666267 108.745082 
L 491.23734 108.745082 
L 491.23734 108.745082 
" clip-path="url(#p1c590ab8db)" style="fill: none; stroke: #4682b4; stroke-opacity: 0.15; stroke-width: 0.5; stroke-linecap: square"/>
   </g>
   <g id="line2d_34">
    <path d="M 65.490469 305.676307 
L 72.15374 305.676307 
L 72.281471 294.092117 
L 78.369955 294.092117 
L 78.497686 282.507927 
L 95.379393 282.507927 
L 95.507124 270.923738 
L 133.826258 270.923738 
L 133.953989 259.339548 
L 140.808856 259.339548 
L 140.936586 247.755358 
L 154.497302 247.755358 
L 154.625033 236.171168 
L 184.386227 236.171168 
L 184.513958 224.586979 
L 187.068567 224.586979 
L 187.196297 213.002789 
L 189.601887 213.002789 
L 189.729618 201.418599 
L 255.638529 201.418599 
L 255.766259 189.83441 
L 275.41546 189.83441 
L 275.54319 178.25022 
L 313.585575 178.25022 
L 313.713306 166.66603 
L 315.054475 166.66603 
L 315.182206 155.08184 
L 326.23089 155.08184 
L 326.35862 143.497651 
L 328.63648 143.497651 
L 328.76421 131.913461 
L 345.965244 131.913461 
L 346.092974 120.329271 
L 412.555384 120.329271 
L 412.683114 108.745082 
L 415.237723 108.745082 
L 415.365454 97.160892 
L 448.277333 97.160892 
L 448.405063 85.576702 
L 455.408949 85.576702 
L 455.53668 73.992512 
L 491.23734 73.992512 
L 491.23734 73.992512 
" clip-path="url(#p1c590ab8db)" style="fill: none; stroke: #4682b4; stroke-opacity: 0.15; stroke-width: 0.5; stroke-linecap: square"/>
   </g>
   <g id="line2d_35">
    <path d="M 65.490469 305.676307 
L 96.997312 305.676307 
L 97.125043 294.092117 
L 121.649289 294.092117 
L 121.777019 282.507927 
L 134.358468 282.507927 
L 134.486199 270.923738 
L 150.175756 270.923738 
L 150.303486 259.339548 
L 185.408071 259.339548 
L 185.535801 247.755358 
L 201.821433 247.755358 
L 201.949164 236.171168 
L 206.377153 236.171168 
L 206.504883 224.586979 
L 220.981 224.586979 
L 221.108731 213.002789 
L 272.903428 213.002789 
L 273.031158 201.418599 
L 278.182953 201.418599 
L 278.310683 189.83441 
L 289.31679 189.83441 
L 289.444521 178.25022 
L 317.460065 178.25022 
L 317.587796 166.66603 
L 345.582052 166.66603 
L 345.709783 155.08184 
L 378.302336 155.08184 
L 378.430066 143.497651 
L 388.499483 143.497651 
L 388.627213 131.913461 
L 398.015401 131.913461 
L 398.143132 120.329271 
L 487.128677 120.329271 
L 487.256408 108.745082 
L 491.23734 108.745082 
L 491.23734 108.745082 
" clip-path="url(#p1c590ab8db)" style="fill: none; stroke: #4682b4; stroke-opacity: 0.15; stroke-width: 0.5; stroke-linecap: square"/>
   </g>
   <g id="line2d_36">
    <path d="M 65.490469 305.676307 
L 80.945853 305.676307 
L 81.073583 294.092117 
L 85.054516 294.092117 
L 85.182246 282.507927 
L 119.115968 282.507927 
L 119.243699 270.923738 
L 129.078943 270.923738 
L 129.206674 259.339548 
L 181.171678 259.339548 
L 181.299408 247.755358 
L 182.87475 247.755358 
L 183.002481 236.171168 
L 193.263493 236.171168 
L 193.391224 224.586979 
L 202.26849 224.586979 
L 202.39622 213.002789 
L 209.378818 213.002789 
L 209.506549 201.418599 
L 220.789405 201.418599 
L 220.917135 189.83441 
L 230.709803 189.83441 
L 230.837533 178.25022 
L 253.062631 178.25022 
L 253.190362 166.66603 
L 317.247181 166.66603 
L 317.374912 155.08184 
L 326.273466 155.08184 
L 326.401197 143.497651 
L 340.366392 143.497651 
L 340.494123 131.913461 
L 364.635178 131.913461 
L 364.762908 120.329271 
L 408.617028 120.329271 
L 408.744759 108.745082 
L 457.920981 108.745082 
L 458.048712 97.160892 
L 464.115908 97.160892 
L 464.243639 85.576702 
L 471.886177 85.576702 
L 472.013907 73.992512 
L 480.529271 73.992512 
L 480.657001 62.408323 
L 491.23734 62.408323 
L 491.23734 62.408323 
" clip-path="url(#p1c590ab8db)" style="fill: none; stroke: #4682b4; stroke-opacity: 0.15; stroke-width: 0.5; stroke-linecap: square"/>
   </g>
   <g id="line2d_37">
    <path d="M 65.490469 305.676307 
L 113.155214 305.676307 
L 113.282944 294.092117 
L 127.929369 294.092117 
L 128.0571 282.507927 
L 128.504156 282.507927 
L 128.631887 270.923738 
L 135.188716 270.923738 
L 135.316447 259.339548 
L 167.10004 259.339548 
L 167.22777 247.755358 
L 201.033762 247.755358 
L 201.161493 236.171168 
L 220.746828 236.171168 
L 220.874558 224.586979 
L 237.798843 224.586979 
L 237.926573 213.002789 
L 250.699618 213.002789 
L 250.827348 201.418599 
L 292.148148 201.418599 
L 292.275879 189.83441 
L 301.131857 189.83441 
L 301.259587 178.25022 
L 303.069102 178.25022 
L 303.196832 166.66603 
L 318.886389 166.66603 
L 319.014119 155.08184 
L 320.121116 155.08184 
L 320.248847 143.497651 
L 347.796047 143.497651 
L 347.923777 131.913461 
L 377.025031 131.913461 
L 377.152761 120.329271 
L 410.809735 120.329271 
L 410.937465 108.745082 
L 442.529462 108.745082 
L 442.657193 97.160892 
L 458.857671 97.160892 
L 458.985402 85.576702 
L 491.23734 85.576702 
L 491.23734 85.576702 
" clip-path="url(#p1c590ab8db)" style="fill: none; stroke: #4682b4; stroke-opacity: 0.15; stroke-width: 0.5; stroke-linecap: square"/>
   </g>
   <g id="line2d_38">
    <path d="M 65.490469 305.676307 
L 66.363293 305.676307 
L 66.491024 294.092117 
L 82.946963 294.092117 
L 83.074694 282.507927 
L 164.992487 282.507927 
L 165.120218 270.923738 
L 275.245152 270.923738 
L 275.372883 259.339548 
L 356.864909 259.339548 
L 356.992639 247.755358 
L 359.696267 247.755358 
L 359.823997 236.171168 
L 368.914148 236.171168 
L 369.041878 224.586979 
L 393.055202 224.586979 
L 393.182933 213.002789 
L 459.709208 213.002789 
L 459.836938 201.418599 
L 469.501875 201.418599 
L 469.629606 189.83441 
L 474.291767 189.83441 
L 474.419498 178.25022 
L 491.23734 178.25022 
L 491.23734 178.25022 
" clip-path="url(#p1c590ab8db)" style="fill: none; stroke: #4682b4; stroke-opacity: 0.15; stroke-width: 0.5; stroke-linecap: square"/>
   </g>
   <g id="line2d_39">
    <path d="M 65.490469 305.676307 
L 177.595225 305.676307 
L 177.722955 294.092117 
L 185.706108 294.092117 
L 185.833839 282.507927 
L 231.391032 282.507927 
L 231.518762 270.923738 
L 233.456008 270.923738 
L 233.583738 259.339548 
L 242.311985 259.339548 
L 242.439716 247.755358 
L 245.46267 247.755358 
L 245.5904 236.171168 
L 300.791242 236.171168 
L 300.918972 224.586979 
L 308.795683 224.586979 
L 308.923414 213.002789 
L 315.118341 213.002789 
L 315.246071 201.418599 
L 346.199416 201.418599 
L 346.327147 189.83441 
L 349.137217 189.83441 
L 349.264947 178.25022 
L 380.750502 178.25022 
L 380.878233 166.66603 
L 395.013736 166.66603 
L 395.141466 155.08184 
L 429.713841 155.08184 
L 429.841571 143.497651 
L 467.841379 143.497651 
L 467.96911 131.913461 
L 468.650339 131.913461 
L 468.778069 120.329271 
L 475.930975 120.329271 
L 476.058705 108.745082 
L 491.23734 108.745082 
L 491.23734 108.745082 
" clip-path="url(#p1c590ab8db)" style="fill: none; stroke: #4682b4; stroke-opacity: 0.15; stroke-width: 0.5; stroke-linecap: square"/>
   </g>
   <g id="line2d_40">
    <path d="M 65.490469 305.676307 
L 82.18058 305.676307 
L 82.308311 294.092117 
L 153.475459 294.092117 
L 153.603189 282.507927 
L 180.34143 282.507927 
L 180.46916 270.923738 
L 223.088553 270.923738 
L 223.216283 259.339548 
L 235.840309 259.339548 
L 235.96804 247.755358 
L 293.127415 247.755358 
L 293.255146 236.171168 
L 300.81253 236.171168 
L 300.940261 224.586979 
L 306.049479 224.586979 
L 306.177209 213.002789 
L 309.945257 213.002789 
L 310.072988 201.418599 
L 319.035408 201.418599 
L 319.163138 189.83441 
L 320.057251 189.83441 
L 320.184982 178.25022 
L 343.580942 178.25022 
L 343.708673 166.66603 
L 364.422294 166.66603 
L 364.550024 155.08184 
L 450.427462 155.08184 
L 450.555192 143.497651 
L 485.595912 143.497651 
L 485.723642 131.913461 
L 491.23734 131.913461 
L 491.23734 131.913461 
" clip-path="url(#p1c590ab8db)" style="fill: none; stroke: #4682b4; stroke-opacity: 0.15; stroke-width: 0.5; stroke-linecap: square"/>
   </g>
   <g id="line2d_41">
    <path d="M 65.490469 305.676307 
L 66.363293 305.676307 
L 66.491024 304.710958 
L 72.15374 304.710958 
L 72.281471 303.745609 
L 78.369955 303.745609 
L 78.497686 302.780259 
L 80.945853 302.780259 
L 81.073583 301.81491 
L 82.18058 301.81491 
L 82.308311 300.849561 
L 82.946963 300.849561 
L 83.074694 299.884212 
L 85.054516 299.884212 
L 85.182246 298.918863 
L 89.525081 298.918863 
L 89.652812 297.953514 
L 95.379393 297.953514 
L 95.507124 296.988165 
L 96.997312 296.988165 
L 97.125043 296.022815 
L 98.189463 296.022815 
L 98.317194 295.057466 
L 99.637075 295.057466 
L 99.764805 294.092117 
L 104.533409 294.092117 
L 104.661139 293.126768 
L 110.047106 293.126768 
L 110.174837 292.161419 
L 112.495273 292.161419 
L 112.623004 291.19607 
L 113.155214 291.19607 
L 113.282944 290.230721 
L 115.284055 290.230721 
L 115.411785 289.265371 
L 118.200567 289.265371 
L 118.328297 288.300022 
L 119.115968 288.300022 
L 119.243699 287.334673 
L 121.649289 287.334673 
L 121.777019 286.369324 
L 126.758507 286.369324 
L 126.886237 285.403975 
L 127.588755 285.403975 
L 127.716485 284.438626 
L 127.929369 284.438626 
L 128.0571 283.473277 
L 128.504156 283.473277 
L 128.631887 282.507927 
L 129.078943 282.507927 
L 129.206674 281.542578 
L 133.826258 281.542578 
L 133.953989 280.577229 
L 134.358468 280.577229 
L 134.486199 279.61188 
L 135.188716 279.61188 
L 135.316447 278.646531 
L 135.720927 278.646531 
L 135.848657 277.681182 
L 136.317002 277.681182 
L 136.444732 276.715833 
L 138.126517 276.715833 
L 138.254247 275.750483 
L 140.808856 275.750483 
L 140.957875 273.819785 
L 146.152246 273.819785 
L 146.279977 272.854436 
L 146.663168 272.854436 
L 146.790899 271.889087 
L 148.387529 271.889087 
L 148.51526 270.923738 
L 149.835141 270.923738 
L 149.962871 269.958389 
L 150.175756 269.958389 
L 150.303486 268.993039 
L 153.475459 268.993039 
L 153.603189 268.02769 
L 154.497302 268.02769 
L 154.625033 267.062341 
L 156.200375 267.062341 
L 156.328105 266.096992 
L 156.924181 266.096992 
L 157.051911 265.131643 
L 163.097819 265.131643 
L 163.22555 264.166294 
L 164.566719 264.166294 
L 164.69445 263.200944 
L 164.992487 263.200944 
L 165.120218 262.235595 
L 167.10004 262.235595 
L 167.22777 261.270246 
L 168.845689 261.270246 
L 168.97342 260.304897 
L 169.463053 260.304897 
L 169.590784 259.339548 
L 174.231657 259.339548 
L 174.359387 258.374199 
L 174.785155 258.374199 
L 174.912886 257.40885 
L 177.595225 257.40885 
L 177.722955 256.4435 
L 180.34143 256.4435 
L 180.46916 255.478151 
L 181.171678 255.478151 
L 181.299408 254.512802 
L 182.87475 254.512802 
L 183.002481 253.547453 
L 183.215365 253.547453 
L 183.343095 252.582104 
L 184.386227 252.582104 
L 184.513958 251.616755 
L 184.6204 251.616755 
L 184.74813 250.651406 
L 185.408071 250.651406 
L 185.535801 249.686056 
L 185.706108 249.686056 
L 185.833839 248.720707 
L 187.068567 248.720707 
L 187.196297 247.755358 
L 189.601887 247.755358 
L 189.729618 246.790009 
L 191.177229 246.790009 
L 191.30496 245.82466 
L 193.263493 245.82466 
L 193.391224 244.859311 
L 201.033762 244.859311 
L 201.161493 243.893962 
L 201.821433 243.893962 
L 201.949164 242.928612 
L 202.26849 242.928612 
L 202.39622 241.963263 
L 204.2696 241.963263 
L 204.418619 240.032565 
L 205.717212 240.032565 
L 205.844942 239.067216 
L 206.377153 239.067216 
L 206.504883 238.101867 
L 209.378818 238.101867 
L 209.506549 237.136518 
L 217.574855 237.136518 
L 217.702586 236.171168 
L 217.958047 236.171168 
L 218.085777 235.205819 
L 219.001179 235.205819 
L 219.128909 234.24047 
L 220.746828 234.24047 
L 220.895847 232.309772 
L 220.981 232.309772 
L 221.108731 231.344423 
L 222.790515 231.344423 
L 222.918246 230.379074 
L 223.088553 230.379074 
L 223.216283 229.413724 
L 224.749049 229.413724 
L 224.876779 228.448375 
L 230.709803 228.448375 
L 230.837533 227.483026 
L 231.391032 227.483026 
L 231.518762 226.517677 
L 233.456008 226.517677 
L 233.583738 225.552328 
L 235.840309 225.552328 
L 235.96804 224.586979 
L 237.798843 224.586979 
L 237.926573 223.62163 
L 242.311985 223.62163 
L 242.439716 222.65628 
L 245.46267 222.65628 
L 245.611689 220.725582 
L 250.699618 220.725582 
L 250.827348 219.760233 
L 251.998211 219.760233 
L 252.125941 218.794884 
L 253.062631 218.794884 
L 253.190362 217.829535 
L 255.638529 217.829535 
L 255.766259 216.864186 
L 256.766814 216.864186 
L 256.894545 215.898836 
L 272.903428 215.898836 
L 273.031158 214.933487 
L 275.245152 214.933487 
L 275.394171 213.002789 
L 275.41546 213.002789 
L 275.54319 212.03744 
L 278.182953 212.03744 
L 278.310683 211.072091 
L 278.864182 211.072091 
L 278.991912 210.106742 
L 280.673696 210.106742 
L 280.801427 209.141392 
L 289.31679 209.141392 
L 289.444521 208.176043 
L 292.148148 208.176043 
L 292.275879 207.210694 
L 293.127415 207.210694 
L 293.255146 206.245345 
L 293.553183 206.245345 
L 293.680914 205.279996 
L 300.791242 205.279996 
L 300.940261 203.349298 
L 301.046703 203.349298 
L 301.195722 201.418599 
L 302.664622 201.418599 
L 302.792352 200.45325 
L 303.069102 200.45325 
L 303.196832 199.487901 
L 306.049479 199.487901 
L 306.177209 198.522552 
L 307.156476 198.522552 
L 307.284206 197.557203 
L 308.795683 197.557203 
L 308.923414 196.591854 
L 309.945257 196.591854 
L 310.072988 195.626504 
L 310.58391 195.626504 
L 310.71164 194.661155 
L 313.585575 194.661155 
L 313.713306 193.695806 
L 315.054475 193.695806 
L 315.203494 191.765108 
L 317.247181 191.765108 
L 317.374912 190.799759 
L 317.460065 190.799759 
L 317.587796 189.83441 
L 318.886389 189.83441 
L 319.014119 188.86906 
L 319.035408 188.86906 
L 319.163138 187.903711 
L 319.652772 187.903711 
L 319.780502 186.938362 
L 320.057251 186.938362 
L 320.20627 185.007664 
L 320.227559 185.007664 
L 320.355289 184.042315 
L 326.23089 184.042315 
L 326.379908 182.111616 
L 326.997272 182.111616 
L 327.125003 181.146267 
L 328.63648 181.146267 
L 328.76421 180.180918 
L 329.956361 180.180918 
L 330.084091 179.215569 
L 332.298086 179.215569 
L 332.425816 178.25022 
L 333.894716 178.25022 
L 334.022447 177.284871 
L 335.938404 177.284871 
L 336.066134 176.319522 
L 338.918781 176.319522 
L 339.046511 175.354172 
L 340.366392 175.354172 
L 340.494123 174.388823 
L 343.580942 174.388823 
L 343.708673 173.423474 
L 345.582052 173.423474 
L 345.709783 172.458125 
L 345.965244 172.458125 
L 346.092974 171.492776 
L 346.199416 171.492776 
L 346.327147 170.527427 
L 347.796047 170.527427 
L 347.923777 169.562078 
L 348.115373 169.562078 
L 348.243103 168.596728 
L 349.137217 168.596728 
L 349.264947 167.631379 
L 351.50023 167.631379 
L 351.62796 166.66603 
L 351.840844 166.66603 
L 351.968575 165.700681 
L 356.864909 165.700681 
L 356.992639 164.735332 
L 359.696267 164.735332 
L 359.823997 163.769983 
L 361.39934 163.769983 
L 361.52707 162.804634 
L 363.230143 162.804634 
L 363.357873 161.839284 
L 364.422294 161.839284 
L 364.550024 160.873935 
L 364.635178 160.873935 
L 364.762908 159.908586 
L 368.914148 159.908586 
L 369.041878 158.943237 
L 369.382493 158.943237 
L 369.510223 157.977888 
L 373.767905 157.977888 
L 373.895635 157.012539 
L 377.025031 157.012539 
L 377.152761 156.04719 
L 378.302336 156.04719 
L 378.430066 155.08184 
L 380.750502 155.08184 
L 380.878233 154.116491 
L 383.73088 154.116491 
L 383.85861 153.151142 
L 385.625548 153.151142 
L 385.753278 152.185793 
L 388.499483 152.185793 
L 388.627213 151.220444 
L 390.245132 151.220444 
L 390.372863 150.255095 
L 393.055202 150.255095 
L 393.182933 149.289746 
L 395.013736 149.289746 
L 395.141466 148.324396 
L 398.015401 148.324396 
L 398.143132 147.359047 
L 400.0378 147.359047 
L 400.165531 146.393698 
L 400.293261 146.393698 
L 400.420991 145.428349 
L 401.208663 145.428349 
L 401.336393 144.463 
L 401.677007 144.463 
L 401.804738 143.497651 
L 401.91118 143.497651 
L 402.03891 142.532302 
L 404.210328 142.532302 
L 404.338058 141.566952 
L 405.487633 141.566952 
L 405.615363 140.601603 
L 406.168862 140.601603 
L 406.296592 139.636254 
L 406.31788 139.636254 
L 406.445611 138.670905 
L 406.701072 138.670905 
L 406.828802 137.705556 
L 408.617028 137.705556 
L 408.744759 136.740207 
L 410.809735 136.740207 
L 410.937465 135.774858 
L 412.555384 135.774858 
L 412.704403 133.844159 
L 415.237723 133.844159 
L 415.365454 132.87881 
L 420.538537 132.87881 
L 420.666267 131.913461 
L 421.751976 131.913461 
L 421.879707 130.948112 
L 425.924504 130.948112 
L 426.052235 129.982763 
L 429.713841 129.982763 
L 429.841571 129.017414 
L 431.374337 129.017414 
L 431.502067 128.052064 
L 431.693663 128.052064 
L 431.821393 127.086715 
L 433.098698 127.086715 
L 433.226428 126.121366 
L 440.507064 126.121366 
L 440.634794 125.156017 
L 440.82639 125.156017 
L 440.95412 124.190668 
L 442.529462 124.190668 
L 442.657193 123.225319 
L 444.126093 123.225319 
L 444.253823 122.25997 
L 448.277333 122.25997 
L 448.405063 121.29462 
L 449.001138 121.29462 
L 449.128869 120.329271 
L 450.427462 120.329271 
L 450.555192 119.363922 
L 454.365817 119.363922 
L 454.493548 118.398573 
L 455.408949 118.398573 
L 455.53668 117.433224 
L 457.920981 117.433224 
L 458.048712 116.467875 
L 458.857671 116.467875 
L 458.985402 115.502526 
L 459.709208 115.502526 
L 459.836938 114.537176 
L 464.115908 114.537176 
L 464.243639 113.571827 
L 467.841379 113.571827 
L 467.96911 112.606478 
L 468.650339 112.606478 
L 468.778069 111.641129 
L 469.501875 111.641129 
L 469.629606 110.67578 
L 471.886177 110.67578 
L 472.013907 109.710431 
L 472.269368 109.710431 
L 472.397099 108.745082 
L 474.291767 108.745082 
L 474.419498 107.779732 
L 475.930975 107.779732 
L 476.058705 106.814383 
L 477.910796 106.814383 
L 478.038527 105.849034 
L 480.529271 105.849034 
L 480.657001 104.883685 
L 482.125901 104.883685 
L 482.253632 103.918336 
L 485.595912 103.918336 
L 485.723642 102.952987 
L 487.128677 102.952987 
L 487.256408 101.987638 
L 489.704575 101.987638 
L 489.832305 101.022288 
L 491.23734 101.022288 
L 491.23734 101.022288 
" clip-path="url(#p1c590ab8db)" style="fill: none; stroke: #00008b; stroke-width: 2; stroke-linecap: square"/>
   </g>
   <g id="line2d_42">
    <path d="M 65.490469 305.665704 
L 491.23734 93.625523 
L 491.23734 93.625523 
" clip-path="url(#p1c590ab8db)" style="fill: none; stroke-dasharray: 5.55,2.4; stroke-dashoffset: 0; stroke: #ff0000; stroke-opacity: 0.7; stroke-width: 1.5"/>
   </g>
   <g id="patch_3">
    <path d="M 44.203125 318.998125 
L 44.203125 25.918125 
" style="fill: none; stroke: #000000; stroke-width: 0.8; stroke-linejoin: miter; stroke-linecap: square"/>
   </g>
   <g id="patch_4">
    <path d="M 512.524683 318.998125 
L 512.524683 25.918125 
" style="fill: none; stroke: #000000; stroke-width: 0.8; stroke-linejoin: miter; stroke-linecap: square"/>
   </g>
   <g id="patch_5">
    <path d="M 44.203125 318.998125 
L 512.524683 318.998125 
" style="fill: none; stroke: #000000; stroke-width: 0.8; stroke-linejoin: miter; stroke-linecap: square"/>
   </g>
   <g id="patch_6">
    <path d="M 44.203125 25.918125 
L 512.524683 25.918125 
" style="fill: none; stroke: #000000; stroke-width: 0.8; stroke-linejoin: miter; stroke-linecap: square"/>
   </g>
   <g id="text_17">
    <!-- Module 2: Neutral Mutation Accumulation -->
    <g transform="translate(153.548904 19.918125)scale(0.12 -0.12)">
     <defs>
      <path id="DejaVuSans-64" d="M 2906 2969 
L 2906 4863 
L 3481 4863 
L 3481 0 
L 2906 0 
L 2906 525 
Q 2725 213 2448 61 
Q 2172 -91 1784 -91 
Q 1150 -91 751 415 
Q 353 922 353 1747 
Q 353 2572 751 3078 
Q 1150 3584 1784 3584 
Q 2172 3584 2448 3432 
Q 2725 3281 2906 2969 
z
M 947 1747 
Q 947 1113 1208 752 
Q 1469 391 1925 391 
Q 2381 391 2643 752 
Q 2906 1113 2906 1747 
Q 2906 2381 2643 2742 
Q 2381 3103 1925 3103 
Q 1469 3103 1208 2742 
Q 947 2381 947 1747 
z
" transform="scale(0.015625)"/>
      <path id="DejaVuSans-3a" d="M 750 794 
L 1409 794 
L 1409 0 
L 750 0 
L 750 794 
z
M 750 3309 
L 1409 3309 
L 1409 2516 
L 750 2516 
L 750 3309 
z
" transform="scale(0.015625)"/>
      <path id="DejaVuSans-4e" d="M 628 4666 
L 1478 4666 
L 3547 763 
L 3547 4666 
L 4159 4666 
L 4159 0 
L 3309 0 
L 1241 3903 
L 1241 0 
L 628 0 
L 628 4666 
z
" transform="scale(0.015625)"/>
      <path id="DejaVuSans-41" d="M 2188 4044 
L 1331 1722 
L 3047 1722 
L 2188 4044 
z
M 1831 4666 
L 2547 4666 
L 4325 0 
L 3669 0 
L 3244 1197 
L 1141 1197 
L 716 0 
L 50 0 
L 1831 4666 
z
" transform="scale(0.015625)"/>
      <path id="DejaVuSans-63" d="M 3122 3366 
L 3122 2828 
Q 2878 2963 2633 3030 
Q 2388 3097 2138 3097 
Q 1578 3097 1268 2742 
Q 959 2388 959 1747 
Q 959 1106 1268 751 
Q 1578 397 2138 397 
Q 2388 397 2633 464 
Q 2878 531 3122 666 
L 3122 134 
Q 2881 22 2623 -34 
Q 2366 -91 2075 -91 
Q 1284 -91 818 406 
Q 353 903 353 1747 
Q 353 2603 823 3093 
Q 1294 3584 2113 3584 
Q 2378 3584 2631 3529 
Q 2884 3475 3122 3366 
z
" transform="scale(0.015625)"/>
     </defs>
     <use xlink:href="#DejaVuSans-4d"/>
     <use xlink:href="#DejaVuSans-6f" x="86.279297"/>
     <use xlink:href="#DejaVuSans-64" x="147.460938"/>
     <use xlink:href="#DejaVuSans-75" x="210.9375"/>
     <use xlink:href="#DejaVuSans-6c" x="274.316406"/>
     <use xlink:href="#DejaVuSans-65" x="302.099609"/>
     <use xlink:href="#DejaVuSans-20" x="363.623047"/>
     <use xlink:href="#DejaVuSans-32" x="395.410156"/>
     <use xlink:href="#DejaVuSans-3a" x="459.033203"/>
     <use xlink:href="#DejaVuSans-20" x="492.724609"/>
     <use xlink:href="#DejaVuSans-4e" x="524.511719"/>
     <use xlink:href="#DejaVuSans-65" x="599.316406"/>
     <use xlink:href="#DejaVuSans-75" x="660.839844"/>
     <use xlink:href="#DejaVuSans-74" x="724.21875"/>
     <use xlink:href="#DejaVuSans-72" x="763.427734"/>
     <use xlink:href="#DejaVuSans-61" x="804.541016"/>
     <use xlink:href="#DejaVuSans-6c" x="865.820312"/>
     <use xlink:href="#DejaVuSans-20" x="893.603516"/>
     <use xlink:href="#DejaVuSans-4d" x="925.390625"/>
     <use xlink:href="#DejaVuSans-75" x="1011.669922"/>
     <use xlink:href="#DejaVuSans-74" x="1075.048828"/>
     <use xlink:href="#DejaVuSans-61" x="1114.257812"/>
     <use xlink:href="#DejaVuSans-74" x="1175.537109"/>
     <use xlink:href="#DejaVuSans-69" x="1214.746094"/>
     <use xlink:href="#DejaVuSans-6f" x="1242.529297"/>
     <use xlink:href="#DejaVuSans-6e" x="1303.710938"/>
     <use xlink:href="#DejaVuSans-20" x="1367.089844"/>
     <use xlink:href="#DejaVuSans-41" x="1398.876953"/>
     <use xlink:href="#DejaVuSans-63" x="1465.535156"/>
     <use xlink:href="#DejaVuSans-63" x="1520.515625"/>
     <use xlink:href="#DejaVuSans-75" x="1575.496094"/>
     <use xlink:href="#DejaVuSans-6d" x="1638.875"/>
     <use xlink:href="#DejaVuSans-75" x="1736.287109"/>
     <use xlink:href="#DejaVuSans-6c" x="1799.666016"/>
     <use xlink:href="#DejaVuSans-61" x="1827.449219"/>
     <use xlink:href="#DejaVuSans-74" x="1888.728516"/>
     <use xlink:href="#DejaVuSans-69" x="1927.9375"/>
     <use xlink:href="#DejaVuSans-6f" x="1955.720703"/>
     <use xlink:href="#DejaVuSans-6e" x="2016.902344"/>
    </g>
   </g>
   <g id="legend_1">
    <g id="patch_7">
     <path d="M 51.203125 63.274375 
L 231.125 63.274375 
Q 233.125 63.274375 233.125 61.274375 
L 233.125 32.918125 
Q 233.125 30.918125 231.125 30.918125 
L 51.203125 30.918125 
Q 49.203125 30.918125 49.203125 32.918125 
L 49.203125 61.274375 
Q 49.203125 63.274375 51.203125 63.274375 
z
" style="fill: #ffffff; opacity: 0.8; stroke: #cccccc; stroke-linejoin: miter"/>
    </g>
    <g id="line2d_43">
     <path d="M 53.203125 39.016562 
L 63.203125 39.016562 
L 73.203125 39.016562 
" style="fill: none; stroke: #00008b; stroke-width: 2; stroke-linecap: square"/>
    </g>
    <g id="text_18">
     <!-- Mean trajectory -->
     <g transform="translate(81.203125 42.516562)scale(0.1 -0.1)">
      <defs>
       <path id="DejaVuSans-6a" d="M 603 3500 
L 1178 3500 
L 1178 -63 
Q 1178 -731 923 -1031 
Q 669 -1331 103 -1331 
L -116 -1331 
L -116 -844 
L 38 -844 
Q 366 -844 484 -692 
Q 603 -541 603 -63 
L 603 3500 
z
M 603 4863 
L 1178 4863 
L 1178 4134 
L 603 4134 
L 603 4863 
z
" transform="scale(0.015625)"/>
       <path id="DejaVuSans-79" d="M 2059 -325 
Q 1816 -950 1584 -1140 
Q 1353 -1331 966 -1331 
L 506 -1331 
L 506 -850 
L 844 -850 
Q 1081 -850 1212 -737 
Q 1344 -625 1503 -206 
L 1606 56 
L 191 3500 
L 800 3500 
L 1894 763 
L 2988 3500 
L 3597 3500 
L 2059 -325 
z
" transform="scale(0.015625)"/>
      </defs>
      <use xlink:href="#DejaVuSans-4d"/>
      <use xlink:href="#DejaVuSans-65" x="86.279297"/>
      <use xlink:href="#DejaVuSans-61" x="147.802734"/>
      <use xlink:href="#DejaVuSans-6e" x="209.082031"/>
      <use xlink:href="#DejaVuSans-20" x="272.460938"/>
      <use xlink:href="#DejaVuSans-74" x="304.248047"/>
      <use xlink:href="#DejaVuSans-72" x="343.457031"/>
      <use xlink:href="#DejaVuSans-61" x="384.570312"/>
      <use xlink:href="#DejaVuSans-6a" x="445.849609"/>
      <use xlink:href="#DejaVuSans-65" x="473.632812"/>
      <use xlink:href="#DejaVuSans-63" x="535.15625"/>
      <use xlink:href="#DejaVuSans-74" x="590.136719"/>
      <use xlink:href="#DejaVuSans-6f" x="629.345703"/>
      <use xlink:href="#DejaVuSans-72" x="690.527344"/>
      <use xlink:href="#DejaVuSans-79" x="731.640625"/>
     </g>
    </g>
    <g id="line2d_44">
     <path d="M 53.203125 53.694687 
L 63.203125 53.694687 
L 73.203125 53.694687 
" style="fill: none; stroke-dasharray: 5.55,2.4; stroke-dashoffset: 0; stroke: #ff0000; stroke-opacity: 0.7; stroke-width: 1.5"/>
    </g>
    <g id="text_19">
     <!-- Linear fit (slope=9.1526e-04) -->
     <g transform="translate(81.203125 57.194687)scale(0.1 -0.1)">
      <defs>
       <path id="DejaVuSans-4c" d="M 628 4666 
L 1259 4666 
L 1259 531 
L 3531 531 
L 3531 0 
L 628 0 
L 628 4666 
z
" transform="scale(0.015625)"/>
       <path id="DejaVuSans-66" d="M 2375 4863 
L 2375 4384 
L 1825 4384 
Q 1516 4384 1395 4259 
Q 1275 4134 1275 3809 
L 1275 3500 
L 2222 3500 
L 2222 3053 
L 1275 3053 
L 1275 0 
L 697 0 
L 697 3053 
L 147 3053 
L 147 3500 
L 697 3500 
L 697 3744 
Q 697 4328 969 4595 
Q 1241 4863 1831 4863 
L 2375 4863 
z
" transform="scale(0.015625)"/>
       <path id="DejaVuSans-28" d="M 1984 4856 
Q 1566 4138 1362 3434 
Q 1159 2731 1159 2009 
Q 1159 1288 1364 580 
Q 1569 -128 1984 -844 
L 1484 -844 
Q 1016 -109 783 600 
Q 550 1309 550 2009 
Q 550 2706 781 3412 
Q 1013 4119 1484 4856 
L 1984 4856 
z
" transform="scale(0.015625)"/>
       <path id="DejaVuSans-70" d="M 1159 525 
L 1159 -1331 
L 581 -1331 
L 581 3500 
L 1159 3500 
L 1159 2969 
Q 1341 3281 1617 3432 
Q 1894 3584 2278 3584 
Q 2916 3584 3314 3078 
Q 3713 2572 3713 1747 
Q 3713 922 3314 415 
Q 2916 -91 2278 -91 
Q 1894 -91 1617 61 
Q 1341 213 1159 525 
z
M 3116 1747 
Q 3116 2381 2855 2742 
Q 2594 3103 2138 3103 
Q 1681 3103 1420 2742 
Q 1159 2381 1159 1747 
Q 1159 1113 1420 752 
Q 1681 391 2138 391 
Q 2594 391 2855 752 
Q 3116 1113 3116 1747 
z
" transform="scale(0.015625)"/>
       <path id="DejaVuSans-3d" d="M 678 2906 
L 4684 2906 
L 4684 2381 
L 678 2381 
L 678 2906 
z
M 678 1631 
L 4684 1631 
L 4684 1100 
L 678 1100 
L 678 1631 
z
" transform="scale(0.015625)"/>
       <path id="DejaVuSans-39" d="M 703 97 
L 703 672 
Q 941 559 1184 500 
Q 1428 441 1663 441 
Q 2288 441 2617 861 
Q 2947 1281 2994 2138 
Q 2813 1869 2534 1725 
Q 2256 1581 1919 1581 
Q 1219 1581 811 2004 
Q 403 2428 403 3163 
Q 403 3881 828 4315 
Q 1253 4750 1959 4750 
Q 2769 4750 3195 4129 
Q 3622 3509 3622 2328 
Q 3622 1225 3098 567 
Q 2575 -91 1691 -91 
Q 1453 -91 1209 -44 
Q 966 3 703 97 
z
M 1959 2075 
Q 2384 2075 2632 2365 
Q 2881 2656 2881 3163 
Q 2881 3666 2632 3958 
Q 2384 4250 1959 4250 
Q 1534 4250 1286 3958 
Q 1038 3666 1038 3163 
Q 1038 2656 1286 2365 
Q 1534 2075 1959 2075 
z
" transform="scale(0.015625)"/>
       <path id="DejaVuSans-2e" d="M 684 794 
L 1344 794 
L 1344 0 
L 684 0 
L 684 794 
z
" transform="scale(0.015625)"/>
       <path id="DejaVuSans-36" d="M 2113 2584 
Q 1688 2584 1439 2293 
Q 1191 2003 1191 1497 
Q 1191 994 1439 701 
Q 1688 409 2113 409 
Q 2538 409 2786 701 
Q 3034 994 3034 1497 
Q 3034 2003 2786 2293 
Q 2538 2584 2113 2584 
z
M 3366 4563 
L 3366 3988 
Q 3128 4100 2886 4159 
Q 2644 4219 2406 4219 
Q 1781 4219 1451 3797 
Q 1122 3375 1075 2522 
Q 1259 2794 1537 2939 
Q 1816 3084 2150 3084 
Q 2853 3084 3261 2657 
Q 3669 2231 3669 1497 
Q 3669 778 3244 343 
Q 2819 -91 2113 -91 
Q 1303 -91 875 529 
Q 447 1150 447 2328 
Q 447 3434 972 4092 
Q 1497 4750 2381 4750 
Q 2619 4750 2861 4703 
Q 3103 4656 3366 4563 
z
" transform="scale(0.015625)"/>
       <path id="DejaVuSans-2d" d="M 313 2009 
L 1997 2009 
L 1997 1497 
L 313 1497 
L 313 2009 
z
" transform="scale(0.015625)"/>
       <path id="DejaVuSans-34" d="M 2419 4116 
L 825 1625 
L 2419 1625 
L 2419 4116 
z
M 2253 4666 
L 3047 4666 
L 3047 1625 
L 3713 1625 
L 3713 1100 
L 3047 1100 
L 3047 0 
L 2419 0 
L 2419 1100 
L 313 1100 
L 313 1709 
L 2253 4666 
z
" transform="scale(0.015625)"/>
       <path id="DejaVuSans-29" d="M 513 4856 
L 1013 4856 
Q 1481 4119 1714 3412 
Q 1947 2706 1947 2009 
Q 1947 1309 1714 600 
Q 1481 -109 1013 -844 
L 513 -844 
Q 928 -128 1133 580 
Q 1338 1288 1338 2009 
Q 1338 2731 1133 3434 
Q 928 4138 513 4856 
z
" transform="scale(0.015625)"/>
      </defs>
      <use xlink:href="#DejaVuSans-4c"/>
      <use xlink:href="#DejaVuSans-69" x="55.712891"/>
      <use xlink:href="#DejaVuSans-6e" x="83.496094"/>
      <use xlink:href="#DejaVuSans-65" x="146.875"/>
      <use xlink:href="#DejaVuSans-61" x="208.398438"/>
      <use xlink:href="#DejaVuSans-72" x="269.677734"/>
      <use xlink:href="#DejaVuSans-20" x="310.791016"/>
      <use xlink:href="#DejaVuSans-66" x="342.578125"/>
      <use xlink:href="#DejaVuSans-69" x="377.783203"/>
      <use xlink:href="#DejaVuSans-74" x="405.566406"/>
      <use xlink:href="#DejaVuSans-20" x="444.775391"/>
      <use xlink:href="#DejaVuSans-28" x="476.5625"/>
      <use xlink:href="#DejaVuSans-73" x="515.576172"/>
      <use xlink:href="#DejaVuSans-6c" x="567.675781"/>
      <use xlink:href="#DejaVuSans-6f" x="595.458984"/>
      <use xlink:href="#DejaVuSans-70" x="656.640625"/>
      <use xlink:href="#DejaVuSans-65" x="720.117188"/>
      <use xlink:href="#DejaVuSans-3d" x="781.640625"/>
      <use xlink:href="#DejaVuSans-39" x="865.429688"/>
      <use xlink:href="#DejaVuSans-2e" x="929.052734"/>
      <use xlink:href="#DejaVuSans-31" x="960.839844"/>
      <use xlink:href="#DejaVuSans-35" x="1024.462891"/>
      <use xlink:href="#DejaVuSans-32" x="1088.085938"/>
      <use xlink:href="#DejaVuSans-36" x="1151.708984"/>
      <use xlink:href="#DejaVuSans-65" x="1215.332031"/>
      <use xlink:href="#DejaVuSans-2d" x="1276.855469"/>
      <use xlink:href="#DejaVuSans-30" x="1312.939453"/>
      <use xlink:href="#DejaVuSans-34" x="1376.5625"/>
      <use xlink:href="#DejaVuSans-29" x="1440.185547"/>
     </g>
    </g>
   </g>
  </g>
  <g id="axes_2">
   <g id="patch_8">
    <path d="M 598.244683 318.998125 
L 832.405463 318.998125 
L 832.405463 25.918125 
L 598.244683 25.918125 
z
" style="fill: #ffffff"/>
   </g>
   <g id="patch_9">
    <path d="M 598.244683 305.676307 
L 598.244876 305.676307 
L 598.244876 249.584441 
L 598.244683 249.584441 
z
" clip-path="url(#pd268e4685e)" style="fill: #4e79a7"/>
   </g>
   <g id="patch_10">
    <path d="M 598.244683 235.561474 
L 598.330493 235.561474 
L 598.330493 179.469608 
L 598.244683 179.469608 
z
" clip-path="url(#pd268e4685e)" style="fill: #59a14f"/>
   </g>
   <g id="patch_11">
    <path d="M 598.244683 165.446642 
L 694.546599 165.446642 
L 694.546599 109.354776 
L 598.244683 109.354776 
z
" clip-path="url(#pd268e4685e)" style="fill: #f28e2b"/>
   </g>
   <g id="patch_12">
    <path d="M 598.244683 95.331809 
L 821.254949 95.331809 
L 821.254949 39.239943 
L 598.244683 39.239943 
z
" clip-path="url(#pd268e4685e)" style="fill: #e15759"/>
   </g>
   <g id="matplotlib.axis_3">
    <g id="xtick_10">
     <g id="line2d_45">
      <g>
       <use xlink:href="#mcd6cedaf45" x="598.244683" y="318.998125" style="stroke: #000000; stroke-width: 0.8"/>
      </g>
     </g>
     <g id="text_20">
      <!-- 0.0 -->
      <g transform="translate(590.293121 333.596563)scale(0.1 -0.1)">
       <use xlink:href="#DejaVuSans-30"/>
       <use xlink:href="#DejaVuSans-2e" x="63.623047"/>
       <use xlink:href="#DejaVuSans-30" x="95.410156"/>
      </g>
     </g>
    </g>
    <g id="xtick_11">
     <g id="line2d_46">
      <g>
       <use xlink:href="#mcd6cedaf45" x="646.452057" y="318.998125" style="stroke: #000000; stroke-width: 0.8"/>
      </g>
     </g>
     <g id="text_21">
      <!-- 0.5 -->
      <g transform="translate(638.500494 333.596563)scale(0.1 -0.1)">
       <use xlink:href="#DejaVuSans-30"/>
       <use xlink:href="#DejaVuSans-2e" x="63.623047"/>
       <use xlink:href="#DejaVuSans-35" x="95.410156"/>
      </g>
     </g>
    </g>
    <g id="xtick_12">
     <g id="line2d_47">
      <g>
       <use xlink:href="#mcd6cedaf45" x="694.65943" y="318.998125" style="stroke: #000000; stroke-width: 0.8"/>
      </g>
     </g>
     <g id="text_22">
      <!-- 1.0 -->
      <g transform="translate(686.707868 333.596563)scale(0.1 -0.1)">
       <use xlink:href="#DejaVuSans-31"/>
       <use xlink:href="#DejaVuSans-2e" x="63.623047"/>
       <use xlink:href="#DejaVuSans-30" x="95.410156"/>
      </g>
     </g>
    </g>
    <g id="xtick_13">
     <g id="line2d_48">
      <g>
       <use xlink:href="#mcd6cedaf45" x="742.866804" y="318.998125" style="stroke: #000000; stroke-width: 0.8"/>
      </g>
     </g>
     <g id="text_23">
      <!-- 1.5 -->
      <g transform="translate(734.915242 333.596563)scale(0.1 -0.1)">
       <use xlink:href="#DejaVuSans-31"/>
       <use xlink:href="#DejaVuSans-2e" x="63.623047"/>
       <use xlink:href="#DejaVuSans-35" x="95.410156"/>
      </g>
     </g>
    </g>
    <g id="xtick_14">
     <g id="line2d_49">
      <g>
       <use xlink:href="#mcd6cedaf45" x="791.074178" y="318.998125" style="stroke: #000000; stroke-width: 0.8"/>
      </g>
     </g>
     <g id="text_24">
      <!-- 2.0 -->
      <g transform="translate(783.122615 333.596563)scale(0.1 -0.1)">
       <use xlink:href="#DejaVuSans-32"/>
       <use xlink:href="#DejaVuSans-2e" x="63.623047"/>
       <use xlink:href="#DejaVuSans-30" x="95.410156"/>
      </g>
     </g>
    </g>
    <g id="text_25">
     <!-- Value -->
     <g transform="translate(701.593823 347.274688)scale(0.1 -0.1)">
      <defs>
       <path id="DejaVuSans-56" d="M 1831 0 
L 50 4666 
L 709 4666 
L 2188 738 
L 3669 4666 
L 4325 4666 
L 2547 0 
L 1831 0 
z
" transform="scale(0.015625)"/>
      </defs>
      <use xlink:href="#DejaVuSans-56"/>
      <use xlink:href="#DejaVuSans-61" x="60.658203"/>
      <use xlink:href="#DejaVuSans-6c" x="121.9375"/>
      <use xlink:href="#DejaVuSans-75" x="149.720703"/>
      <use xlink:href="#DejaVuSans-65" x="213.099609"/>
     </g>
    </g>
   </g>
   <g id="matplotlib.axis_4">
    <g id="ytick_6">
     <g id="line2d_50">
      <g>
       <use xlink:href="#m058d8c19b8" x="598.244683" y="277.630374" style="stroke: #000000; stroke-width: 0.8"/>
      </g>
     </g>
     <g id="text_26">
      <!-- P_fix(neutral) -->
      <g transform="translate(524.429058 281.429593)scale(0.1 -0.1)">
       <defs>
        <path id="DejaVuSans-50" d="M 1259 4147 
L 1259 2394 
L 2053 2394 
Q 2494 2394 2734 2622 
Q 2975 2850 2975 3272 
Q 2975 3691 2734 3919 
Q 2494 4147 2053 4147 
L 1259 4147 
z
M 628 4666 
L 2053 4666 
Q 2838 4666 3239 4311 
Q 3641 3956 3641 3272 
Q 3641 2581 3239 2228 
Q 2838 1875 2053 1875 
L 1259 1875 
L 1259 0 
L 628 0 
L 628 4666 
z
" transform="scale(0.015625)"/>
        <path id="DejaVuSans-5f" d="M 3263 -1063 
L 3263 -1509 
L -63 -1509 
L -63 -1063 
L 3263 -1063 
z
" transform="scale(0.015625)"/>
        <path id="DejaVuSans-78" d="M 3513 3500 
L 2247 1797 
L 3578 0 
L 2900 0 
L 1881 1375 
L 863 0 
L 184 0 
L 1544 1831 
L 300 3500 
L 978 3500 
L 1906 2253 
L 2834 3500 
L 3513 3500 
z
" transform="scale(0.015625)"/>
       </defs>
       <use xlink:href="#DejaVuSans-50"/>
       <use xlink:href="#DejaVuSans-5f" x="60.302734"/>
       <use xlink:href="#DejaVuSans-66" x="110.302734"/>
       <use xlink:href="#DejaVuSans-69" x="145.507812"/>
       <use xlink:href="#DejaVuSans-78" x="173.291016"/>
       <use xlink:href="#DejaVuSans-28" x="232.470703"/>
       <use xlink:href="#DejaVuSans-6e" x="271.484375"/>
       <use xlink:href="#DejaVuSans-65" x="334.863281"/>
       <use xlink:href="#DejaVuSans-75" x="396.386719"/>
       <use xlink:href="#DejaVuSans-74" x="459.765625"/>
       <use xlink:href="#DejaVuSans-72" x="498.974609"/>
       <use xlink:href="#DejaVuSans-61" x="540.087891"/>
       <use xlink:href="#DejaVuSans-6c" x="601.367188"/>
       <use xlink:href="#DejaVuSans-29" x="629.150391"/>
      </g>
     </g>
    </g>
    <g id="ytick_7">
     <g id="line2d_51">
      <g>
       <use xlink:href="#m058d8c19b8" x="598.244683" y="207.515541" style="stroke: #000000; stroke-width: 0.8"/>
      </g>
     </g>
     <g id="text_27">
      <!-- Clock rate (μ) -->
      <g transform="translate(523.241558 211.31476)scale(0.1 -0.1)">
       <defs>
        <path id="DejaVuSans-6b" d="M 581 4863 
L 1159 4863 
L 1159 1991 
L 2875 3500 
L 3609 3500 
L 1753 1863 
L 3688 0 
L 2938 0 
L 1159 1709 
L 1159 0 
L 581 0 
L 581 4863 
z
" transform="scale(0.015625)"/>
        <path id="DejaVuSans-3bc" d="M 544 -1331 
L 544 3500 
L 1119 3500 
L 1119 1325 
Q 1119 872 1334 640 
Q 1550 409 1972 409 
Q 2434 409 2667 671 
Q 2900 934 2900 1459 
L 2900 3500 
L 3475 3500 
L 3475 806 
Q 3475 619 3529 530 
Q 3584 441 3700 441 
Q 3728 441 3778 458 
Q 3828 475 3916 513 
L 3916 50 
Q 3788 -22 3673 -56 
Q 3559 -91 3450 -91 
Q 3234 -91 3106 31 
Q 2978 153 2931 403 
Q 2775 156 2548 32 
Q 2322 -91 2016 -91 
Q 1697 -91 1473 31 
Q 1250 153 1119 397 
L 1119 -1331 
L 544 -1331 
z
" transform="scale(0.015625)"/>
       </defs>
       <use xlink:href="#DejaVuSans-43"/>
       <use xlink:href="#DejaVuSans-6c" x="69.824219"/>
       <use xlink:href="#DejaVuSans-6f" x="97.607422"/>
       <use xlink:href="#DejaVuSans-63" x="158.789062"/>
       <use xlink:href="#DejaVuSans-6b" x="213.769531"/>
       <use xlink:href="#DejaVuSans-20" x="271.679688"/>
       <use xlink:href="#DejaVuSans-72" x="303.466797"/>
       <use xlink:href="#DejaVuSans-61" x="344.580078"/>
       <use xlink:href="#DejaVuSans-74" x="405.859375"/>
       <use xlink:href="#DejaVuSans-65" x="445.068359"/>
       <use xlink:href="#DejaVuSans-20" x="506.591797"/>
       <use xlink:href="#DejaVuSans-28" x="538.378906"/>
       <use xlink:href="#DejaVuSans-3bc" x="577.392578"/>
       <use xlink:href="#DejaVuSans-29" x="641.015625"/>
      </g>
     </g>
    </g>
    <g id="ytick_8">
     <g id="line2d_52">
      <g>
       <use xlink:href="#m058d8c19b8" x="598.244683" y="137.400709" style="stroke: #000000; stroke-width: 0.8"/>
      </g>
     </g>
     <g id="text_28">
      <!-- Pearson r -->
      <g transform="translate(544.230621 141.199927)scale(0.1 -0.1)">
       <use xlink:href="#DejaVuSans-50"/>
       <use xlink:href="#DejaVuSans-65" x="56.677734"/>
       <use xlink:href="#DejaVuSans-61" x="118.201172"/>
       <use xlink:href="#DejaVuSans-72" x="179.480469"/>
       <use xlink:href="#DejaVuSans-73" x="220.59375"/>
       <use xlink:href="#DejaVuSans-6f" x="272.693359"/>
       <use xlink:href="#DejaVuSans-6e" x="333.875"/>
       <use xlink:href="#DejaVuSans-20" x="397.253906"/>
       <use xlink:href="#DejaVuSans-72" x="429.041016"/>
      </g>
     </g>
    </g>
    <g id="ytick_9">
     <g id="line2d_53">
      <g>
       <use xlink:href="#m058d8c19b8" x="598.244683" y="67.285876" style="stroke: #000000; stroke-width: 0.8"/>
      </g>
     </g>
     <g id="text_29">
      <!-- Drift ratio -->
      <g transform="translate(543.155621 71.085095)scale(0.1 -0.1)">
       <defs>
        <path id="DejaVuSans-44" d="M 1259 4147 
L 1259 519 
L 2022 519 
Q 2988 519 3436 956 
Q 3884 1394 3884 2338 
Q 3884 3275 3436 3711 
Q 2988 4147 2022 4147 
L 1259 4147 
z
M 628 4666 
L 1925 4666 
Q 3281 4666 3915 4102 
Q 4550 3538 4550 2338 
Q 4550 1131 3912 565 
Q 3275 0 1925 0 
L 628 0 
L 628 4666 
z
" transform="scale(0.015625)"/>
       </defs>
       <use xlink:href="#DejaVuSans-44"/>
       <use xlink:href="#DejaVuSans-72" x="77.001953"/>
       <use xlink:href="#DejaVuSans-69" x="118.115234"/>
       <use xlink:href="#DejaVuSans-66" x="145.898438"/>
       <use xlink:href="#DejaVuSans-74" x="179.353516"/>
       <use xlink:href="#DejaVuSans-20" x="218.5625"/>
       <use xlink:href="#DejaVuSans-72" x="250.349609"/>
       <use xlink:href="#DejaVuSans-61" x="291.462891"/>
       <use xlink:href="#DejaVuSans-74" x="352.742188"/>
       <use xlink:href="#DejaVuSans-69" x="391.951172"/>
       <use xlink:href="#DejaVuSans-6f" x="419.734375"/>
      </g>
     </g>
    </g>
   </g>
   <g id="patch_13">
    <path d="M 598.244683 318.998125 
L 598.244683 25.918125 
" style="fill: none; stroke: #000000; stroke-width: 0.8; stroke-linejoin: miter; stroke-linecap: square"/>
   </g>
   <g id="patch_14">
    <path d="M 832.405463 318.998125 
L 832.405463 25.918125 
" style="fill: none; stroke: #000000; stroke-width: 0.8; stroke-linejoin: miter; stroke-linecap: square"/>
   </g>
   <g id="patch_15">
    <path d="M 598.244683 318.998125 
L 832.405463 318.998125 
" style="fill: none; stroke: #000000; stroke-width: 0.8; stroke-linejoin: miter; stroke-linecap: square"/>
   </g>
   <g id="patch_16">
    <path d="M 598.244683 25.918125 
L 832.405463 25.918125 
" style="fill: none; stroke: #000000; stroke-width: 0.8; stroke-linejoin: miter; stroke-linecap: square"/>
   </g>
   <g id="text_30">
    <!--  2.0000e-06 -->
    <g transform="translate(598.244876 279.837874)scale(0.08 -0.08)">
     <use xlink:href="#DejaVuSans-20"/>
     <use xlink:href="#DejaVuSans-32" x="31.787109"/>
     <use xlink:href="#DejaVuSans-2e" x="95.410156"/>
     <use xlink:href="#DejaVuSans-30" x="127.197266"/>
     <use xlink:href="#DejaVuSans-30" x="190.820312"/>
     <use xlink:href="#DejaVuSans-30" x="254.443359"/>
     <use xlink:href="#DejaVuSans-30" x="318.066406"/>
     <use xlink:href="#DejaVuSans-65" x="381.689453"/>
     <use xlink:href="#DejaVuSans-2d" x="443.212891"/>
     <use xlink:href="#DejaVuSans-30" x="479.296875"/>
     <use xlink:href="#DejaVuSans-36" x="542.919922"/>
    </g>
   </g>
   <g id="text_31">
    <!--  8.9000e-04 -->
    <g transform="translate(598.330493 209.723041)scale(0.08 -0.08)">
     <defs>
      <path id="DejaVuSans-38" d="M 2034 2216 
Q 1584 2216 1326 1975 
Q 1069 1734 1069 1313 
Q 1069 891 1326 650 
Q 1584 409 2034 409 
Q 2484 409 2743 651 
Q 3003 894 3003 1313 
Q 3003 1734 2745 1975 
Q 2488 2216 2034 2216 
z
M 1403 2484 
Q 997 2584 770 2862 
Q 544 3141 544 3541 
Q 544 4100 942 4425 
Q 1341 4750 2034 4750 
Q 2731 4750 3128 4425 
Q 3525 4100 3525 3541 
Q 3525 3141 3298 2862 
Q 3072 2584 2669 2484 
Q 3125 2378 3379 2068 
Q 3634 1759 3634 1313 
Q 3634 634 3220 271 
Q 2806 -91 2034 -91 
Q 1263 -91 848 271 
Q 434 634 434 1313 
Q 434 1759 690 2068 
Q 947 2378 1403 2484 
z
M 1172 3481 
Q 1172 3119 1398 2916 
Q 1625 2713 2034 2713 
Q 2441 2713 2670 2916 
Q 2900 3119 2900 3481 
Q 2900 3844 2670 4047 
Q 2441 4250 2034 4250 
Q 1625 4250 1398 4047 
Q 1172 3844 1172 3481 
z
" transform="scale(0.015625)"/>
     </defs>
     <use xlink:href="#DejaVuSans-20"/>
     <use xlink:href="#DejaVuSans-38" x="31.787109"/>
     <use xlink:href="#DejaVuSans-2e" x="95.410156"/>
     <use xlink:href="#DejaVuSans-39" x="127.197266"/>
     <use xlink:href="#DejaVuSans-30" x="190.820312"/>
     <use xlink:href="#DejaVuSans-30" x="254.443359"/>
     <use xlink:href="#DejaVuSans-30" x="318.066406"/>
     <use xlink:href="#DejaVuSans-65" x="381.689453"/>
     <use xlink:href="#DejaVuSans-2d" x="443.212891"/>
     <use xlink:href="#DejaVuSans-30" x="479.296875"/>
     <use xlink:href="#DejaVuSans-34" x="542.919922"/>
    </g>
   </g>
   <g id="text_32">
    <!--  0.9988 -->
    <g transform="translate(694.546599 139.608209)scale(0.08 -0.08)">
     <use xlink:href="#DejaVuSans-20"/>
     <use xlink:href="#DejaVuSans-30" x="31.787109"/>
     <use xlink:href="#DejaVuSans-2e" x="95.410156"/>
     <use xlink:href="#DejaVuSans-39" x="127.197266"/>
     <use xlink:href="#DejaVuSans-39" x="190.820312"/>
     <use xlink:href="#DejaVuSans-38" x="254.443359"/>
     <use xlink:href="#DejaVuSans-38" x="318.066406"/>
    </g>
   </g>
   <g id="text_33">
    <!--  2.3130 -->
    <g transform="translate(821.254949 69.493376)scale(0.08 -0.08)">
     <defs>
      <path id="DejaVuSans-33" d="M 2597 2516 
Q 3050 2419 3304 2112 
Q 3559 1806 3559 1356 
Q 3559 666 3084 287 
Q 2609 -91 1734 -91 
Q 1441 -91 1130 -33 
Q 819 25 488 141 
L 488 750 
Q 750 597 1062 519 
Q 1375 441 1716 441 
Q 2309 441 2620 675 
Q 2931 909 2931 1356 
Q 2931 1769 2642 2001 
Q 2353 2234 1838 2234 
L 1294 2234 
L 1294 2753 
L 1863 2753 
Q 2328 2753 2575 2939 
Q 2822 3125 2822 3475 
Q 2822 3834 2567 4026 
Q 2313 4219 1838 4219 
Q 1578 4219 1281 4162 
Q 984 4106 628 3988 
L 628 4550 
Q 988 4650 1302 4700 
Q 1616 4750 1894 4750 
Q 2613 4750 3031 4423 
Q 3450 4097 3450 3541 
Q 3450 3153 3228 2886 
Q 3006 2619 2597 2516 
z
" transform="scale(0.015625)"/>
     </defs>
     <use xlink:href="#DejaVuSans-20"/>
     <use xlink:href="#DejaVuSans-32" x="31.787109"/>
     <use xlink:href="#DejaVuSans-2e" x="95.410156"/>
     <use xlink:href="#DejaVuSans-33" x="127.197266"/>
     <use xlink:href="#DejaVuSans-31" x="190.820312"/>
     <use xlink:href="#DejaVuSans-33" x="254.443359"/>
     <use xlink:href="#DejaVuSans-30" x="318.066406"/>
    </g>
   </g>
   <g id="text_34">
    <!-- Key Parameters -->
    <g transform="translate(668.199761 19.918125)scale(0.12 -0.12)">
     <defs>
      <path id="DejaVuSans-4b" d="M 628 4666 
L 1259 4666 
L 1259 2694 
L 3353 4666 
L 4166 4666 
L 1850 2491 
L 4331 0 
L 3500 0 
L 1259 2247 
L 1259 0 
L 628 0 
L 628 4666 
z
" transform="scale(0.015625)"/>
     </defs>
     <use xlink:href="#DejaVuSans-4b"/>
     <use xlink:href="#DejaVuSans-65" x="60.576172"/>
     <use xlink:href="#DejaVuSans-79" x="122.099609"/>
     <use xlink:href="#DejaVuSans-20" x="181.279297"/>
     <use xlink:href="#DejaVuSans-50" x="213.066406"/>
     <use xlink:href="#DejaVuSans-61" x="268.869141"/>
     <use xlink:href="#DejaVuSans-72" x="330.148438"/>
     <use xlink:href="#DejaVuSans-61" x="371.261719"/>
     <use xlink:href="#DejaVuSans-6d" x="432.541016"/>
     <use xlink:href="#DejaVuSans-65" x="529.953125"/>
     <use xlink:href="#DejaVuSans-74" x="591.476562"/>
     <use xlink:href="#DejaVuSans-65" x="630.685547"/>
     <use xlink:href="#DejaVuSans-72" x="692.208984"/>
     <use xlink:href="#DejaVuSans-73" x="733.322266"/>
    </g>
   </g>
  </g>
 </g>
 <defs>
  <clipPath id="p1c590ab8db">
   <rect x="44.203125" y="25.918125" width="468.321558" height="293.08"/>
  </clipPath>
  <clipPath id="pd268e4685e">
   <rect x="598.244683" y="25.918125" width="234.160779" height="293.08"/>
  </clipPath>
 </defs>
</svg>
